HIERARCHY
ROOT Hips
{
	OFFSET 0.000000 0.000000 0.000000 
	CHANNELS 6 Xposition Yposition Zposition Zrotation Yrotation Xrotation
	JOINT LeftUpLeg
	{
		OFFSET 1.363060 -1.794630 0.839290 
		CHANNELS 3 Zrotation Yrotation Xrotation
		JOINT LeftLeg
		{
			OFFSET 2.448110 -6.726130 0.000000 
			CHANNELS 3 Zrotation Yrotation Xrotation
			JOINT LeftFoot
			{
				OFFSET 2.562200 -7.039590 0.000000 
				CHANNELS 3 Zrotation Yrotation Xrotation
				JOINT LeftToeBase
				{
					OFFSET 0.157640 -0.433110 2.322550 
					CHANNELS 3 Zrotation Yrotation Xrotation
					End Site
					{
						OFFSET 0.000000 0.000000 0.000000 
					}
				}
			}
		}
	}
	JOINT RightUpLeg
	{
		OFFSET -1.305520 -1.794630 0.839290 
		CHANNELS 3 Zrotation Yrotation Xrotation
		JOINT RightLeg
		{
			OFFSET -2.542530 -6.985550 0.000000 
			CHANNELS 3 Zrotation Yrotation Xrotation
			JOINT RightFoot
			{
				OFFSET -2.568260 -7.056230 0.000000 
				CHANNELS 3 Zrotation Yrotation Xrotation
				JOINT RightToeBase
				{
					OFFSET -0.164730 -0.452590 2.363150 
					CHANNELS 3 Zrotation Yrotation Xrotation
					End Site
					{
						OFFSET 0.000000 0.000000 0.000000 
					}
				}
			}
		}
	}
	JOINT Spine
	{
		OFFSET 0.028270 2.035590 -0.193380 
		CHANNELS 3 Zrotation Yrotation Xrotation
		JOINT Spine1
		{
			OFFSET 0.056720 2.048850 -0.042750 
			CHANNELS 3 Zrotation Yrotation Xrotation
			JOINT Neck1
			{
				OFFSET -0.054170 1.746240 0.172020 
				CHANNELS 3 Zrotation Yrotation Xrotation
				JOINT Head
				{
					OFFSET 0.104070 1.761360 -0.123970 
					CHANNELS 3 Zrotation Yrotation Xrotation
					End Site
					{
						OFFSET 0.000000 0.000000 0.000000 
					}
				}
			}
			JOINT LeftArm
			{
				OFFSET 3.362410 1.200890 -0.311210 
				CHANNELS 3 Zrotation Yrotation Xrotation
				JOINT LeftForeArm
				{
					OFFSET 4.983000 -0.000000 -0.000000 
					CHANNELS 3 Zrotation Yrotation Xrotation
					JOINT LeftHand
					{
						OFFSET 3.483560 -0.000000 -0.000000 
						CHANNELS 3 Zrotation Yrotation Xrotation
						JOINT LeftHandIndex1
						{
							OFFSET 0.715260 -0.000000 -0.000000 
							CHANNELS 3 Zrotation Yrotation Xrotation
							End Site
							{
								OFFSET 0.000000 0.000000 0.000000 
							}
						}
					}
				}
			}
			JOINT RightArm
			{
				OFFSET -3.136600 1.374050 -0.404650 
				CHANNELS 3 Zrotation Yrotation Xrotation
				JOINT RightForeArm
				{
					OFFSET -5.241900 -0.000000 -0.000000 
					CHANNELS 3 Zrotation Yrotation Xrotation
					JOINT RightHand
					{
						OFFSET -3.444170 -0.000000 -0.000000 
						CHANNELS 3 Zrotation Yrotation Xrotation
						JOINT RightHandIndex1
						{
							OFFSET -0.622530 -0.000000 -0.000000 
							CHANNELS 3 Zrotation Yrotation Xrotation
							End Site
							{
								OFFSET 0.000000 0.000000 0.000000 
							}
						}
					}
				}
			}
		}
	}
}
MOTION
Frames: 18
Frame Time: 0.041667
9.176028 18.886448 14.342364 12.447061 4.426758 -7.593986 -40.265260 12.391044 18.018657 5.144608 0.619305 -2.661696 -1.699485 -13.348542 -26.969014 0.570000 4.835000 13.438700 22.447516 -14.120637 39.053367 -5.434846 1.467132 -10.445177 -4.572680 -1.103096 -40.517723 -2.480000 -9.801400 28.336000 -26.078303 0.026961 19.211424 9.167317 -0.134400 -4.281313 20.671145 -28.797382 33.347831 1.451400 -12.469600 6.456000 -98.375514 -0.127305 18.458662 22.211465 -25.447623 -2.100045 0.188804 -0.416354 -3.847933 -7.125000 0.000000 0.000000 93.477786 -1.960630 29.034838 -22.183699 22.779783 -4.100747 0.166396 -5.594442 6.546374 7.125000 0.000000 0.000000 
9.174268 18.881606 14.350552 11.869162 4.141449 -7.769198 -39.821178 12.137548 18.401446 5.155115 0.547374 -2.815606 -1.470621 -12.872454 -27.346670 0.486800 4.474100 12.414300 23.666519 -13.484082 38.885719 -5.530255 1.474683 -10.432501 -4.861696 -1.857311 -41.108068 -2.288700 -9.443100 27.191600 -25.173815 0.164076 19.948905 9.448181 -0.395188 -1.500213 29.434533 -24.016384 6.855450 4.195200 -11.946600 3.248700 -98.352302 -1.325059 18.387979 22.347013 -25.331520 -2.092114 0.223502 -0.425004 -3.821905 -7.125000 0.000000 0.000000 93.336752 -0.409276 29.082317 -22.129226 22.790878 -4.134887 0.158831 -5.643811 6.588946 7.125000 0.000000 0.000000 
9.175060 18.880021 14.354778 11.539250 3.964712 -7.719944 -39.600669 12.053653 18.532453 5.164711 0.514145 -2.894721 -1.401666 -12.741615 -27.489589 0.453900 4.322200 11.985000 24.250097 -13.251896 38.722686 -5.567270 1.468309 -10.426233 -5.015346 -2.271371 -41.492018 -2.086800 -9.044500 25.934700 -24.473211 0.110706 19.688711 9.533309 -0.448036 -0.448110 30.135667 -21.138012 -1.647850 4.827000 -11.733300 2.213200 -98.321958 -1.700761 18.339408 22.376490 -25.209730 -2.076443 0.208824 -0.408412 -3.789486 -7.125000 0.000000 0.000000 93.185723 -0.009217 29.081300 -22.165441 22.807838 -4.156602 0.144979 -5.659335 6.633362 7.125000 0.000000 0.000000 
9.175500 18.881165 14.347207 11.460016 4.029805 -7.414952 -39.534916 12.038334 18.204623 5.196423 0.583328 -2.677999 -1.483540 -12.850345 -27.294549 0.549500 4.749000 13.193900 24.720965 -13.104397 38.487145 -5.605373 1.447727 -10.389735 -5.152903 -2.524109 -42.067278 -2.041400 -8.951700 25.644500 -24.840899 -0.165821 18.509435 9.583601 -0.535848 -0.315794 30.283307 -21.539220 -0.676790 4.776400 -11.800100 2.326200 -98.313580 -1.486914 18.184122 22.364743 -25.110100 -2.055347 0.171044 -0.399430 -3.569008 -7.125000 0.000000 0.000000 93.106316 -0.282452 29.080025 -22.296313 22.856894 -4.185052 0.162105 -5.650463 6.657816 7.125000 0.000000 0.000000 
9.175500 18.881341 14.343421 11.262554 4.028773 -7.225315 -39.410339 11.991014 18.045388 5.219340 0.622176 -2.544881 -1.505526 -12.848556 -27.210340 0.623800 5.054400 14.063700 25.242837 -12.918914 38.278434 -5.644583 1.427769 -10.341722 -5.279404 -2.792526 -42.525864 -1.978500 -8.821100 25.237300 -24.591321 -0.352114 17.763844 9.621018 -0.617344 0.336607 30.804837 -20.133436 -4.524399 5.098800 -11.713100 1.856300 -98.271697 -1.607011 18.105091 22.362290 -24.983873 -2.036885 0.158268 -0.401949 -3.455151 -7.125000 0.000000 0.000000 92.991443 -0.178746 29.070496 -22.391240 22.912478 -4.214795 0.166553 -5.654638 6.700007 7.125000 0.000000 0.000000 
9.175764 18.882310 14.338315 11.172105 4.083533 -7.057478 -39.357386 11.959553 17.845120 5.240535 0.675032 -2.373896 -1.550227 -12.888231 -27.076082 0.723000 5.433400 15.149000 25.574931 -12.819994 38.114949 -5.668397 1.406865 -10.294755 -5.365827 -2.969156 -42.869993 -1.928700 -8.716000 24.910900 -24.647960 -0.510485 17.173671 9.694319 -0.680318 0.597829 30.692098 -19.812139 -5.421986 5.141900 -11.689900 1.731100 -98.262994 -1.594753 18.071878 22.330591 -24.865706 -2.017266 0.146236 -0.408425 -3.361495 -7.125000 0.000000 0.000000 92.932049 -0.205387 29.057300 -22.484410 22.988486 -4.242740 0.174567 -5.655235 6.743917 7.125000 0.000000 0.000000 
9.176292 18.883630 14.333296 11.134003 4.145200 -6.939220 -39.347749 11.919496 17.671678 5.256368 0.726496 -2.208270 -1.582863 -12.908915 -26.967199 0.823800 5.791200 16.179700 25.776839 -12.767613 37.999337 -5.680725 1.387442 -10.253017 -5.424490 -3.111668 -43.081517 -1.870700 -8.591300 24.525000 -24.781459 -0.618136 16.806421 9.760479 -0.724907 0.694230 30.540429 -19.837854 -5.360510 5.115500 -11.685500 1.724200 -98.268532 -1.562325 18.077708 22.276839 -24.750932 -1.996487 0.136278 -0.415425 -3.284578 -7.125000 0.000000 0.000000 92.906384 -0.232719 29.035534 -22.559837 23.065815 -4.265555 0.184344 -5.654652 6.794074 7.125000 0.000000 0.000000 
9.177173 18.885127 14.329159 11.107772 4.176815 -6.876571 -39.350151 11.864704 17.560764 5.265803 0.766691 -2.076847 -1.588764 -12.891161 -26.927941 0.905100 6.062700 16.966600 25.904911 -12.739446 37.916737 -5.683190 1.369516 -10.220484 -5.468001 -3.285632 -43.149937 -1.771700 -8.373300 23.853900 -24.884622 -0.668479 16.668327 9.797052 -0.746381 0.684904 30.396467 -19.986524 -4.921130 5.064700 -11.682600 1.766100 -98.282378 -1.538293 18.104030 22.203306 -24.635940 -1.974496 0.130950 -0.427094 -3.217185 -7.125000 0.000000 0.000000 92.902346 -0.231433 29.003100 -22.609221 23.129310 -4.280363 0.192219 -5.653347 6.851954 7.125000 0.000000 0.000000 
9.179110 18.886712 14.327134 11.089669 4.180377 -6.854434 -39.361881 11.810930 17.521725 5.268561 0.790084 -1.997979 -1.576979 -12.858263 -26.948330 0.954100 6.220200 17.424500 25.910978 -12.793693 37.856583 -5.668095 1.353135 -10.210781 -5.480731 -3.462150 -43.031342 -1.614100 -8.011300 22.748500 -24.965325 -0.683206 16.626232 9.803002 -0.756292 0.661338 30.410437 -20.077643 -4.587461 5.043500 -11.675900 1.801700 -98.301799 -1.525909 18.124793 22.116369 -24.519466 -1.951216 0.126281 -0.439204 -3.136506 -7.125000 0.000000 0.000000 92.908487 -0.206327 28.965478 -22.632923 23.166835 -4.286976 0.197976 -5.651577 6.898680 7.125000 0.000000 0.000000 
9.183688 18.888384 14.329335 11.094776 4.169830 -6.858635 -39.391003 11.805363 17.550638 5.262551 0.792004 -1.991964 -1.564657 -12.840768 -26.983486 0.971100 6.273800 17.580900 25.680269 -13.038756 37.804522 -5.622788 1.334938 -10.231130 -5.436878 -3.563344 -42.693203 -1.375000 -7.420600 20.967700 -25.104846 -0.672560 16.609454 9.791610 -0.765661 0.664576 30.515586 -20.115749 -4.375504 5.045300 -11.666600 1.826300 -98.332995 -1.510581 18.123613 22.023534 -24.408954 -1.927771 0.121172 -0.451612 -3.030468 -7.125000 0.000000 0.000000 92.926969 -0.180979 28.934566 -22.640143 23.184319 -4.288821 0.202847 -5.650095 6.915056 7.125000 0.000000 0.000000 
9.190819 18.890233 14.334705 11.103600 4.185202 -6.863800 -39.421375 11.851882 17.603750 5.254714 0.782234 -2.025920 -1.577893 -12.881055 -26.971917 0.978500 6.296900 17.648200 25.287410 -13.447777 37.741990 -5.560144 1.317035 -10.271872 -5.331577 -3.474956 -42.244558 -1.155900 -6.825900 19.200700 -25.283747 -0.667149 16.585813 9.764635 -0.786890 0.706978 30.594713 -20.126211 -4.243687 5.050700 -11.655100 1.840900 -98.371383 -1.491430 18.102927 21.933744 -24.308449 -1.906585 0.119442 -0.462998 -2.913449 -7.125000 0.000000 0.000000 92.951163 -0.165456 28.923720 -22.646592 23.195778 -4.290478 0.204984 -5.648752 6.883918 7.125000 0.000000 0.000000 
9.200151 18.892170 14.342629 11.145534 4.234642 -6.874605 -39.483540 11.951505 17.669424 5.243091 0.764401 -2.090965 -1.615580 -12.967864 -26.897027 0.990500 6.334300 17.757500 24.674597 -14.045176 37.675238 -5.475179 1.294619 -10.320454 -5.161009 -3.196572 -41.677655 -0.939100 -6.172600 17.285900 -25.536498 -0.662474 16.568811 9.751676 -0.819754 0.780446 30.625085 -20.125714 -4.146218 5.055200 -11.641400 1.849700 -98.420543 -1.465011 18.091177 21.849199 -24.220381 -1.889180 0.124602 -0.475645 -2.826081 -7.125000 0.000000 0.000000 92.979374 -0.167781 28.950150 -22.665340 23.221504 -4.296381 0.205175 -5.647726 6.788337 7.125000 0.000000 0.000000 
9.210451 18.893931 14.350992 11.218166 4.301560 -6.883974 -39.579341 12.068655 17.734042 5.229673 0.745629 -2.162879 -1.664869 -13.075112 -26.788673 1.004900 6.378700 17.887200 23.953672 -14.716514 37.616644 -5.383713 1.268849 -10.356614 -4.953673 -2.771275 -41.108101 -0.764300 -5.582800 15.578500 -25.833439 -0.676942 16.482971 9.765894 -0.863411 0.886647 30.683547 -20.098926 -4.104929 5.071700 -11.625200 1.850600 -98.472181 -1.419091 18.114281 21.775522 -24.139253 -1.876045 0.136969 -0.485204 -2.811994 -7.125000 0.000000 0.000000 92.993704 -0.203891 29.019099 -22.713148 23.273946 -4.309862 0.207884 -5.645553 6.637532 7.125000 0.000000 0.000000 
9.219079 18.895339 14.356539 11.298165 4.353542 -6.886895 -39.688773 12.145847 17.777672 5.218308 0.736208 -2.203258 -1.705031 -13.162449 -26.700838 1.017300 6.416900 17.999100 23.344550 -15.253290 37.582872 -5.311405 1.247844 -10.375266 -4.779349 -2.381971 -40.685898 -0.650500 -5.159300 14.363400 -26.087475 -0.715471 16.321758 9.804804 -0.907319 0.997528 30.815210 -20.039065 -4.131453 5.105000 -11.607100 1.844100 -98.519291 -1.360851 18.165505 21.712790 -24.059017 -1.865620 0.153894 -0.492630 -2.866258 -7.125000 0.000000 0.000000 92.978850 -0.267634 29.124420 -22.794123 23.354864 -4.330325 0.214825 -5.640530 6.456511 7.125000 0.000000 0.000000 
9.224449 18.896220 14.357331 11.351339 4.368028 -6.896033 -39.779787 12.142344 17.796822 5.212537 0.740777 -2.190704 -1.718704 -13.197928 -26.678930 1.027700 6.448700 18.092000 23.025096 -15.493986 37.587457 -5.277806 1.239730 -10.382088 -4.697460 -2.187221 -40.507341 -0.605800 -4.982000 13.857200 -26.184380 -0.752219 16.230699 9.843882 -0.934776 1.063502 30.990625 -19.948455 -4.242560 5.147200 -11.588100 1.831500 -98.560598 -1.326455 18.210065 21.655502 -23.981019 -1.855619 0.167554 -0.490163 -2.935040 -7.125000 0.000000 0.000000 92.935867 -0.320624 29.253221 -22.901329 23.465729 -4.355970 0.225937 -5.633018 6.271926 7.125000 0.000000 0.000000 
9.225858 18.896660 14.352929 11.360561 4.333665 -6.917839 -39.837094 12.043271 17.790092 5.213381 0.760867 -2.117638 -1.697091 -13.166424 -26.746291 1.036100 6.474000 18.166000 23.059664 -15.389188 37.625615 -5.288694 1.245884 -10.380448 -4.732739 -2.271965 -40.576243 -0.612400 -5.008600 13.933100 -26.077008 -0.767973 16.302140 9.869302 -0.936104 1.053371 31.160815 -19.840401 -4.422697 5.186800 -11.569700 1.816500 -98.593679 -1.336264 18.227874 21.601488 -23.909461 -1.845571 0.178936 -0.490447 -2.982331 -7.125000 0.000000 0.000000 92.871862 -0.338594 29.388121 -23.024154 23.602533 -4.384885 0.239569 -5.624372 6.111845 7.125000 0.000000 0.000000 
9.224537 18.896836 14.344741 11.334676 4.257009 -6.942745 -39.869750 11.868580 17.757112 5.219367 0.793814 -1.993159 -1.647392 -13.084216 -26.891156 1.039700 6.484900 18.198000 23.364344 -15.033029 37.671925 -5.332204 1.259084 -10.365780 -4.855436 -2.583376 -40.808225 -0.639700 -5.116900 14.242400 -25.826973 -0.765364 16.483840 9.885949 -0.915906 0.983881 31.296976 -19.729985 -4.642340 5.218000 -11.553600 1.800800 -98.617063 -1.375994 18.232468 21.556449 -23.850335 -1.836299 0.185129 -0.490942 -3.004738 -7.125000 0.000000 0.000000 92.799308 -0.326265 29.503639 -23.147442 23.747775 -4.413854 0.252808 -5.615812 5.990573 7.125000 0.000000 0.000000 
9.222512 18.896836 14.335938 11.294415 4.161460 -6.960435 -39.891554 11.671662 17.714182 5.227278 0.830103 -1.854489 -1.588692 -12.990362 -27.068713 1.035600 6.472700 18.162300 23.757418 -14.611946 37.699919 -5.386615 1.268869 -10.331021 -4.994205 -2.935092 -41.078738 -0.672900 -5.245600 14.610300 -25.567753 -0.754251 16.666319 9.907744 -0.888130 0.899270 31.335514 -19.638220 -4.870421 5.232900 -11.543500 1.782300 -98.632658 -1.408179 18.242040 21.534411 -23.817058 -1.830917 0.186292 -0.492186 -3.002576 -7.125000 0.000000 0.000000 92.737849 -0.304201 29.578091 -23.254670 23.879942 -4.439784 0.263344 -5.608864 5.906514 7.125000 0.000000 0.000000 
